<mxfile host="app.diagrams.net" modified="2023-10-13T07:25:16.878Z" agent="Mozilla/5.0 (Windows NT 10.0; Win64; x64) AppleWebKit/537.36 (KHTML, like Gecko) Chrome/116.0.0.0 Safari/537.36 OPR/102.0.0.0" version="21.7.5" etag="9CFOuDrq8wrjDQzx4OTO" type="github">
  <diagram name="Page-1" id="0whdH7ljbWaGtrnMSD9N">
    <mxGraphModel>
      <root>
        <mxCell id="0" />
        <mxCell id="1" parent="0" />
      </root>
    </mxGraphModel>
  </diagram>
</mxfile>
